<svg width="40" height="40" viewBox="0 0 40 40" fill="none" xmlns="http://www.w3.org/2000/svg">
<path d="M3.44401 30.5452C2.84586 30.3536 2.28903 29.7898 2.10227 29.1865C1.96801 28.7528 1.96492 8.88765 2.09905 8.46016C2.22362 8.06313 2.57007 7.61057 2.93078 7.37372C3.55575 6.96335 2.3628 6.99121 18.6001 7.0078L33.2316 7.02276L33.572 7.17583C34.2374 7.47507 34.6762 8.00664 34.8229 8.69129C34.8848 8.97974 34.8611 17.2133 34.7983 17.2759C34.7917 17.2824 34.666 17.2474 34.5188 17.198C34.3196 17.1313 34.1324 17.1176 33.7864 17.1444L33.3215 17.1805V13.0034V8.82628L33.1462 8.6581L32.9709 8.48992H18.4556H3.94034L3.75578 8.63887L3.57124 8.78782V18.8253V28.8627L3.71846 29.0039L3.86569 29.1451H13.1954C18.5073 29.1451 22.5251 29.1669 22.5251 29.1956C22.5251 29.2234 22.4801 29.2816 22.4251 29.3251C22.1328 29.556 21.8676 29.9689 21.8001 30.2978L21.7297 30.641L12.7255 30.6375C4.77681 30.6344 3.6887 30.6235 3.44401 30.5452ZM7.52382 21.7203C7.14107 21.4732 7.10262 20.9477 7.44472 20.6394L7.59956 20.4998L12.7798 20.4845L17.9602 20.4692L18.1714 20.6471C18.5541 20.9694 18.5074 21.4825 18.0723 21.737C17.881 21.8489 17.7618 21.8514 12.8021 21.8517H7.72763L7.52382 21.7203ZM7.72541 18.8633C7.19483 18.7651 7.03981 18.0228 7.47632 17.6705L7.6591 17.523H14.9712H22.2833L22.4653 17.6812C22.9128 18.0703 22.7272 18.7586 22.1446 18.8704C21.9464 18.9084 7.93206 18.9015 7.72541 18.8633ZM7.60785 13.8623C7.13402 13.6382 7.06651 12.0532 7.47632 11.7225L7.6591 11.5749H18.4377C30.304 11.5749 29.371 11.546 29.5731 11.9208C29.7757 12.2965 29.6156 13.7118 29.2047 13.8765C28.8842 14.0049 7.88023 13.9912 7.60785 13.8623Z" fill="#BBBBBB"/>
<path d="M24.9569 32.8706C24.8267 32.7609 24.7814 32.6285 24.6599 32.0021C24.581 31.5957 24.4934 31.2429 24.4652 31.2182C24.437 31.1935 24.0766 31.1173 23.6642 31.0489C22.8463 30.9131 22.6445 30.8012 22.6445 30.4829C22.6445 30.3468 24.9714 27.9945 25.106 27.9945C25.1259 27.9945 25.1743 28.1952 25.2136 28.4404C25.4059 29.6412 25.9752 29.9621 27.4878 29.7224L28.298 29.5941L28.4551 29.7447L28.6121 29.8954L26.9906 31.4477C25.2768 33.0885 25.2432 33.112 24.9569 32.8706ZM33.6534 31.4477L32.0319 29.8954L32.1899 29.7439L32.3478 29.5924L33.0983 29.714C34.0636 29.8705 34.2508 29.8674 34.624 29.689C35.1258 29.4491 35.3502 29.0772 35.4466 28.3254C35.4699 28.1434 35.5081 27.9945 35.5316 27.9945C35.6706 27.9945 37.9995 30.3428 37.9995 30.4829C37.9995 30.799 37.7974 30.9115 36.9799 31.0504C36.5675 31.1204 36.2092 31.1949 36.1836 31.2159C36.158 31.2368 36.0706 31.5886 35.9894 31.9976C35.8322 32.7892 35.7091 33.0001 35.4043 33.0001C35.3151 33.0001 34.7718 32.5184 33.6534 31.4477ZM30.0221 30.404C29.9397 30.3726 29.5881 30.0784 29.241 29.7504C28.4738 29.0255 28.4961 29.0321 27.3978 29.2012C26.0683 29.4058 25.9138 29.2962 25.707 28.002C25.5445 26.9854 25.5366 26.9747 24.6153 26.5253C23.3537 25.91 23.2882 25.7171 23.9341 24.5201C24.1485 24.1228 24.324 23.7288 24.324 23.6448C24.324 23.5607 24.1485 23.1601 23.9341 22.7545C23.2961 21.5479 23.3586 21.3574 24.591 20.7524C25.5524 20.2805 25.5489 20.2851 25.7062 19.2779C25.9116 17.9623 26.0811 17.8533 27.5447 18.095C28.4531 18.2451 28.5011 18.2291 29.195 17.5445C30.1935 16.5593 30.459 16.5588 31.4355 17.5405C32.1227 18.2314 32.1735 18.2478 33.1291 18.0896C34.5704 17.851 34.7272 17.9579 34.946 19.3271C35.1001 20.2918 35.1141 20.3094 36.0877 20.7774C37.2859 21.3534 37.349 21.5533 36.7099 22.7503C36.4955 23.152 36.3201 23.5518 36.3201 23.6389C36.3201 23.726 36.4955 24.1206 36.7099 24.5158C37.361 25.7157 37.2917 25.9162 36.0134 26.5306C35.0936 26.9728 35.1038 26.9588 34.9369 28.0034C34.7983 28.8709 34.7152 29.0428 34.3533 29.2108L34.0934 29.3315L33.2403 29.2002C32.1488 29.0322 32.1698 29.026 31.4031 29.75C30.6505 30.4607 30.4364 30.5621 30.0221 30.404ZM31.5042 28.2216C34.607 27.5364 36.2548 24.1887 34.8586 21.4067C33.4682 18.6361 29.7846 17.8088 27.2177 19.6907C25.0512 21.2791 24.6308 24.3439 26.2913 26.4442C27.506 27.9805 29.5068 28.6627 31.5042 28.2216ZM29.3667 27.56C26.0938 26.8791 24.8781 22.8657 27.2543 20.5863C29.9714 17.98 34.6385 19.8259 34.6385 23.5068C34.6385 26.1487 32.0712 28.1226 29.3667 27.56Z" fill="#F9ABAE"/>
</svg>
